# ProBuilder 4.4.0
# https://unity3d.com/unity/features/worldbuilding/probuilder
# 2/24/2021 1:07:52 AM

mtllib ./Cone.mtl
o Cone

g Cone
v -1 0 -0.4644775
v -0.5 -0.8660259 -0.4644775
v 0 0 1.535522
v 0 0 -0.4644775
v 0.5 -0.8660259 -0.4644775
v 1 0 -0.4644775
v 0.5 0.8660259 -0.4644775
v -0.5 0.8660259 -0.4644775

vt 0 1.759386E-08
vt 1 0
vt 0.5 2.17945
vt 0.5 -0.8660259
vt -0.5 -0.8660259
vt -1 0
vt -0.5 0.8660259
vt 0.5 0.8660259

vn -0.7947195 -0.4588313 0.3973598
vn 0 0 -1
vn 0 -0.9176629 0.3973599
vn 0.7947195 -0.4588313 0.3973598
vn 0.7947195 0.4588313 0.3973598
vn 0 0.9176629 0.3973599
vn -0.7947195 0.4588313 0.3973598

usemtl DefaultHDMaterial
f 1/1/1 2/2/1 3/3/1
f 4/1/2 2/4/2 1/2/2
f 2/1/3 5/2/3 3/3/3
f 4/1/2 5/5/2 2/4/2
f 5/1/4 6/2/4 3/3/4
f 4/1/2 6/6/2 5/5/2
f 6/1/5 7/2/5 3/3/5
f 4/1/2 7/7/2 6/6/2
f 7/1/6 8/2/6 3/3/6
f 4/1/2 8/8/2 7/7/2
f 8/1/7 1/2/7 3/3/7
f 4/1/2 1/2/2 8/8/2

